<svg width="215" height="157" viewBox="0 0 215 157" fill="none" xmlns="http://www.w3.org/2000/svg">
<g clip-path="url(#clip0_1_255)">
<path opacity="0.1" d="M143.017 9.94345C89.606 -12.1525 25.5458 25.8351 10.7184 57.169C-24.8857 132.409 37.3339 167.132 64.7053 154.432C76.132 149.129 85.4658 140.074 94.4866 131.265C108.031 118.15 125.977 110.593 144.796 110.078C159.29 109.744 173.713 113.645 188.165 112.499C202.617 111.354 215.383 91.362 214.991 76.8263C214.394 54.6404 200.291 33.6368 143.017 9.94345Z" fill="#0199DA"/>
<path d="M179.793 7.97177H35.207C30.4125 7.97177 26.5257 11.8704 26.5257 16.6795V130.806C26.5257 135.615 30.4125 139.514 35.207 139.514H179.793C184.588 139.514 188.475 135.615 188.475 130.806V16.6795C188.475 11.8704 184.588 7.97177 179.793 7.97177Z" fill="white"/>
<path d="M179.793 139.787H35.2068C32.833 139.784 30.5571 138.837 28.8786 137.153C27.2 135.47 26.2559 133.187 26.2532 130.806V16.6795C26.2559 14.2984 27.2 12.0156 28.8786 10.3319C30.5571 8.64821 32.833 7.70111 35.2068 7.69839H179.793C182.167 7.70111 184.443 8.64821 186.122 10.3319C187.8 12.0156 188.744 14.2984 188.747 16.6795V130.806C188.744 133.187 187.8 135.47 186.122 137.153C184.443 138.837 182.167 139.784 179.793 139.787ZM35.2068 8.24485C32.9774 8.24741 30.84 9.13689 29.2636 10.7181C27.6872 12.2994 26.8005 14.4433 26.798 16.6795V130.806C26.8005 133.042 27.6872 135.186 29.2636 136.767C30.84 138.348 32.9774 139.238 35.2068 139.24H179.793C182.023 139.238 184.16 138.348 185.737 136.767C187.313 135.186 188.2 133.042 188.202 130.806V16.6795C188.2 14.4433 187.313 12.2994 185.737 10.7181C184.16 9.13689 182.023 8.24741 179.793 8.24485H35.2068Z" fill="#292A2E"/>
<path d="M188.475 16.6804V33.1924H26.5262V16.6804C26.5259 15.5366 26.7503 14.404 27.1865 13.3472C27.6227 12.2905 28.2622 11.3303 29.0685 10.5215C29.8747 9.71266 30.832 9.07112 31.8855 8.63348C32.939 8.19585 34.0682 7.97069 35.2085 7.97089H179.794C182.096 7.97128 184.304 8.88908 185.932 10.5224C187.56 12.1557 188.475 14.3708 188.475 16.6804Z" fill="#0199DA"/>
<path d="M188.767 33.4857H26.2341V16.6804C26.2364 14.2936 27.1826 12.0052 28.8651 10.3173C30.5476 8.62951 32.8289 7.68014 35.2085 7.67758H179.794C182.173 7.68053 184.454 8.63006 186.136 10.3178C187.819 12.0056 188.765 14.2938 188.767 16.6804V33.4857ZM26.8196 32.8991H188.182V16.6804C188.18 14.4494 187.296 12.3104 185.723 10.7326C184.15 9.15479 182.018 8.26709 179.794 8.26422H35.2085C32.984 8.2667 30.8514 9.15424 29.2785 10.7321C27.7057 12.3099 26.8212 14.4491 26.819 16.6804L26.8196 32.8991Z" fill="#0199DA"/>
<path d="M68.5911 16.5258V4.33638C68.5911 2.09243 66.7775 0.273346 64.5403 0.273346C62.3032 0.273346 60.4896 2.09243 60.4896 4.33638V16.5258C60.4896 18.7697 62.3032 20.5888 64.5403 20.5888C66.7775 20.5888 68.5911 18.7697 68.5911 16.5258Z" fill="white"/>
<path d="M64.5392 20.8619C63.3932 20.8604 62.2945 20.403 61.4843 19.59C60.674 18.7771 60.2183 17.675 60.2171 16.5255V4.3364C60.2124 3.76395 60.3207 3.19624 60.5359 2.666C60.751 2.13577 61.0687 1.65352 61.4706 1.24706C61.8725 0.840608 62.3507 0.517995 62.8775 0.297835C63.4044 0.0776745 63.9695 -0.035675 64.5402 -0.035675C65.1109 -0.035675 65.676 0.0776745 66.2029 0.297835C66.7297 0.517995 67.2079 0.840608 67.6098 1.24706C68.0117 1.65352 68.3294 2.13577 68.5445 2.666C68.7597 3.19624 68.868 3.76395 68.8633 4.3364V16.5255C68.8621 17.6754 68.4061 18.7778 67.5954 19.5907C66.7847 20.4037 65.6855 20.8609 64.5392 20.8619ZM64.5392 0.54644C63.5374 0.547527 62.5769 0.947173 61.8686 1.65769C61.1602 2.36821 60.7618 3.33157 60.7607 4.3364V16.5255C60.7563 17.026 60.8508 17.5224 61.0387 17.9861C61.2266 18.4497 61.5042 18.8715 61.8555 19.2269C62.2068 19.5824 62.6248 19.8646 63.0854 20.0571C63.546 20.2497 64.04 20.3488 64.539 20.3488C65.038 20.3488 65.5321 20.2497 65.9927 20.0571C66.4533 19.8646 66.8713 19.5824 67.2225 19.2269C67.5738 18.8715 67.8514 18.4497 68.0394 17.9861C68.2273 17.5224 68.3218 17.026 68.3174 16.5255V4.3364C68.3163 3.33162 67.9179 2.36831 67.2096 1.6578C66.5013 0.947285 65.5409 0.547604 64.5392 0.54644Z" fill="#262626"/>
<path d="M154.511 16.5255V4.33611C154.511 2.09216 152.697 0.273071 150.46 0.273071C148.223 0.273071 146.409 2.09216 146.409 4.33611V16.5255C146.409 18.7695 148.223 20.5885 150.46 20.5885C152.697 20.5885 154.511 18.7695 154.511 16.5255Z" fill="white"/>
<path d="M150.46 20.8619C149.314 20.8607 148.215 20.4034 147.404 19.5904C146.594 18.7775 146.138 17.6752 146.137 16.5255V4.33641C146.137 3.18632 146.592 2.08334 147.403 1.2701C148.214 0.45687 149.313 0 150.46 0C151.607 0 152.706 0.45687 153.517 1.2701C154.328 2.08334 154.783 3.18632 154.783 4.33641V16.5255C154.782 17.6752 154.326 18.7775 153.516 19.5904C152.705 20.4034 151.606 20.8607 150.46 20.8619ZM150.46 0.546451C149.458 0.547848 148.498 0.947632 147.79 1.65812C147.082 2.3686 146.684 3.33179 146.683 4.33641V16.5255C146.683 17.5307 147.081 18.4947 147.789 19.2054C148.498 19.9162 149.459 20.3155 150.461 20.3155C151.463 20.3155 152.424 19.9162 153.133 19.2054C153.841 18.4947 154.24 17.5307 154.24 16.5255V4.33641C154.239 3.33138 153.84 2.36784 153.131 1.65729C152.423 0.946737 151.462 0.547227 150.46 0.546451Z" fill="#262626"/>
<g opacity="0.08">
<path d="M57.7542 44.8764H34.4391V67.8622H57.7542V44.8764Z" fill="#0199DA"/>
<path d="M57.7542 74.2539H34.4391V97.2398H57.7542V74.2539Z" fill="#0199DA"/>
<path d="M57.7542 103.632H34.4391V126.618H57.7542V103.632Z" fill="#0199DA"/>
<path d="M88.454 44.8764H65.1389V67.8622H88.454V44.8764Z" fill="#0199DA"/>
<path d="M88.454 74.2539H65.1389V97.2398H88.454V74.2539Z" fill="#0199DA"/>
<path d="M118.845 44.8764H95.5297V67.8622H118.845V44.8764Z" fill="#0199DA"/>
<path d="M118.845 74.2539H95.5297V97.2398H118.845V74.2539Z" fill="#0199DA"/>
<path d="M150.096 44.8764H126.78V67.8622H150.096V44.8764Z" fill="#0199DA"/>
<path d="M150.096 74.2539H126.78V97.2398H150.096V74.2539Z" fill="#0199DA"/>
<path d="M88.454 103.632H65.1389V126.618H88.454V103.632Z" fill="#0199DA"/>
<path d="M118.845 103.632H95.5297V126.618H118.845V103.632Z" fill="#0199DA"/>
<path d="M180.561 44.8764H157.246V67.8622H180.561V44.8764Z" fill="#0199DA"/>
<path d="M180.561 74.2539H157.246V97.2398H180.561V74.2539Z" fill="#0199DA"/>
</g>
<path d="M92.4732 78.4692C94.8938 78.4692 96.8561 76.5009 96.8561 74.0729C96.8561 71.645 94.8938 69.6767 92.4732 69.6767C90.0526 69.6767 88.0903 71.645 88.0903 74.0729C88.0903 76.5009 90.0526 78.4692 92.4732 78.4692Z" fill="#292A2E"/>
<path d="M122.527 78.4692C124.947 78.4692 126.91 76.5009 126.91 74.0729C126.91 71.645 124.947 69.6767 122.527 69.6767C120.106 69.6767 118.144 71.645 118.144 74.0729C118.144 76.5009 120.106 78.4692 122.527 78.4692Z" fill="#292A2E"/>
<path d="M113.376 86.2312H101.624C101.546 86.2312 101.472 86.2003 101.417 86.1453C101.362 86.0903 101.331 86.0157 101.331 85.9379C101.331 85.8601 101.362 85.7855 101.417 85.7305C101.472 85.6755 101.546 85.6446 101.624 85.6446H113.376C113.454 85.6446 113.528 85.6755 113.583 85.7305C113.638 85.7855 113.669 85.8601 113.669 85.9379C113.669 86.0157 113.638 86.0903 113.583 86.1453C113.528 86.2003 113.454 86.2312 113.376 86.2312Z" fill="#262626"/>
<path d="M87.952 86.6486C90.1113 86.6486 91.8617 85.7245 91.8617 84.5846C91.8617 83.4446 90.1113 82.5205 87.952 82.5205C85.7926 82.5205 84.0422 83.4446 84.0422 84.5846C84.0422 85.7245 85.7926 86.6486 87.952 86.6486Z" fill="white"/>
<path d="M127.048 86.6486C129.207 86.6486 130.958 85.7245 130.958 84.5846C130.958 83.4446 129.207 82.5205 127.048 82.5205C124.889 82.5205 123.138 83.4446 123.138 84.5846C123.138 85.7245 124.889 86.6486 127.048 86.6486Z" fill="white"/>
<g opacity="0.4">
<path d="M87.952 86.6486C90.1113 86.6486 91.8617 85.7245 91.8617 84.5846C91.8617 83.4446 90.1113 82.5205 87.952 82.5205C85.7926 82.5205 84.0422 83.4446 84.0422 84.5846C84.0422 85.7245 85.7926 86.6486 87.952 86.6486Z" fill="#0199DA"/>
<path d="M127.048 86.6486C129.207 86.6486 130.958 85.7245 130.958 84.5846C130.958 83.4446 129.207 82.5205 127.048 82.5205C124.889 82.5205 123.138 83.4446 123.138 84.5846C123.138 85.7245 124.889 86.6486 127.048 86.6486Z" fill="#0199DA"/>
</g>
</g>
<defs>
<clipPath id="clip0_1_255">
<rect width="215" height="157" fill="white"/>
</clipPath>
</defs>
</svg>